<?xml version="1.0" encoding="UTF-8" ?>
<!DOCTYPE svg PUBLIC "-//W3C//DTD SVG 1.1//EN" "http://www.w3.org/Graphics/SVG/1.1/DTD/svg11.dtd">
<svg width="796pt" height="163pt" viewBox="0 0 796 163" version="1.1" xmlns="http://www.w3.org/2000/svg">
<g id="#546ee8ff">
<path fill="#546ee8" opacity="1.00" d=" M 50.51 8.90 C 61.89 5.17 74.05 2.95 86.01 4.83 C 88.13 18.02 90.79 31.12 92.77 44.34 C 78.58 32.65 64.51 20.82 50.51 8.90 Z" />
<path fill="#546ee8" opacity="1.00" d=" M 103.15 8.79 C 114.39 12.87 124.53 19.65 132.86 28.20 C 126.28 39.94 119.47 51.55 112.69 63.18 C 109.32 45.09 106.01 26.97 103.15 8.79 Z" />
<path fill="#546ee8" opacity="1.00" d=" M 10.44 42.87 C 16.59 32.64 24.77 23.46 34.92 17.05 C 45.27 25.49 55.46 34.14 65.65 42.79 C 47.24 43.00 28.84 42.83 10.44 42.87 Z" />
<path fill="#546ee8" opacity="1.00" d=" M 143.44 42.38 C 149.53 52.70 152.72 64.51 154.04 76.36 C 141.36 81.16 128.58 85.70 115.82 90.30 C 124.81 74.20 134.10 58.27 143.44 42.38 Z" />
<path fill="#546ee8" opacity="1.00" d=" M 68.44 54.70 C 81.68 50.25 97.47 57.70 102.35 70.79 C 107.27 82.30 103.00 96.71 92.63 103.69 C 85.11 109.20 74.68 110.28 66.12 106.65 C 56.66 102.76 49.65 93.26 49.18 82.99 C 47.96 70.56 56.63 58.32 68.44 54.70 Z" />
<path fill="#546ee8" opacity="1.00" d=" M 3.52 59.02 C 16.99 58.76 30.48 58.98 43.95 58.92 C 29.86 70.80 15.79 82.71 1.56 94.42 C -1.10 82.71 0.36 70.49 3.52 59.02 Z" />
<path fill="#546ee8" opacity="1.00" d=" M 6.66 111.33 C 16.90 102.67 27.10 93.97 37.51 85.51 C 34.24 103.61 31.25 121.76 27.83 139.83 C 18.77 132.08 11.23 122.38 6.66 111.33 Z" />
<path fill="#546ee8" opacity="1.00" d=" M 100.66 113.02 C 118.00 106.69 135.31 100.27 152.71 94.13 C 150.62 105.82 146.03 117.29 138.63 126.64 C 138.35 126.61 137.78 126.55 137.49 126.52 C 125.23 121.97 112.89 117.65 100.66 113.02 Z" />
<path fill="#546ee8" opacity="1.00" d=" M 49.55 109.99 C 58.98 125.74 67.95 141.75 77.15 157.62 C 65.18 157.89 53.17 154.95 42.54 149.45 C 44.91 136.31 47.09 123.12 49.55 109.99 Z" />
<path fill="#546ee8" opacity="1.00" d=" M 74.73 121.03 C 76.37 121.45 78.01 121.91 79.61 122.50 C 95.22 128.32 110.96 133.83 126.57 139.68 C 117.41 147.45 106.39 152.93 94.74 155.79 C 88.05 144.21 81.26 132.69 74.73 121.03 Z" />
</g>
<g id="#243141ff">
<path fill="#243141" opacity="1.00" d=" M 214.90 45.83 C 226.06 40.35 240.14 40.57 250.76 47.25 C 257.86 51.70 262.53 59.36 264.29 67.46 C 267.04 79.75 264.41 93.78 255.10 102.73 C 261.12 108.44 267.05 114.25 273.04 120.00 C 264.46 119.99 255.87 120.02 247.29 119.98 C 244.48 116.96 241.61 114.00 238.78 111.01 C 228.19 113.68 216.34 111.03 208.02 103.92 C 190.54 88.83 194.04 56.24 214.90 45.83 M 227.37 59.61 C 220.05 62.23 218.23 71.06 218.60 77.95 C 218.77 82.75 220.01 87.95 223.69 91.31 C 228.03 95.23 235.55 94.95 239.33 90.38 C 243.18 85.92 243.91 79.69 243.48 74.02 C 243.15 69.30 241.74 64.20 237.92 61.10 C 234.98 58.73 230.86 58.44 227.37 59.61 Z" />
<path fill="#243141" opacity="1.00" d=" M 400.12 43.86 C 409.93 40.87 420.44 41.79 430.28 44.13 C 430.26 50.41 430.24 56.68 430.29 62.96 C 422.21 58.33 410.80 56.80 403.18 63.11 C 397.65 67.94 396.59 76.15 398.30 82.95 C 399.56 88.29 403.88 92.69 409.14 94.17 C 416.25 96.34 423.81 94.19 430.29 91.08 C 430.24 97.06 430.28 103.04 430.26 109.03 C 418.89 112.52 406.17 113.55 394.89 109.18 C 386.14 105.88 379.41 98.06 377.18 89.02 C 374.58 78.77 375.67 67.30 381.26 58.20 C 385.37 51.20 392.41 46.20 400.12 43.86 Z" />
<path fill="#243141" opacity="1.00" d=" M 549.84 42.81 C 558.94 41.10 568.47 42.06 577.29 44.73 C 577.24 50.48 577.26 56.23 577.28 61.98 C 570.89 58.47 563.07 55.47 555.81 57.81 C 552.14 58.83 551.80 64.26 555.21 65.83 C 561.98 69.73 570.09 71.56 575.66 77.38 C 582.38 83.92 582.49 95.51 576.75 102.70 C 573.34 107.15 568.04 109.65 562.68 110.86 C 552.42 113.02 541.49 112.25 531.72 108.38 C 531.73 102.27 531.75 96.17 531.71 90.06 C 537.43 93.87 544.01 96.98 551.02 97.03 C 553.53 97.08 556.56 96.38 557.73 93.89 C 558.55 91.24 557.00 88.53 554.68 87.27 C 549.26 84.25 542.85 83.08 538.07 78.89 C 531.48 73.85 529.28 64.52 531.92 56.81 C 534.48 49.06 542.14 44.28 549.84 42.81 Z" />
<path fill="#243141" opacity="1.00" d=" M 693.10 42.24 C 704.24 40.86 716.48 44.47 723.68 53.42 C 734.14 66.87 733.98 87.86 722.82 100.86 C 711.82 113.48 691.37 115.51 677.53 106.51 C 669.47 101.47 664.30 92.48 663.22 83.12 C 662.09 73.83 663.84 63.92 669.21 56.15 C 674.49 48.12 683.65 43.23 693.10 42.24 M 693.36 59.64 C 687.81 61.52 685.31 67.58 684.81 72.99 C 684.22 79.21 684.58 86.25 688.77 91.25 C 692.21 95.41 698.81 96.29 703.22 93.16 C 707.76 90.03 709.29 84.22 709.54 79.00 C 709.76 73.13 709.00 66.65 704.93 62.10 C 702.08 58.92 697.26 58.21 693.36 59.64 Z" />
<path fill="#243141" opacity="1.00" d=" M 273.87 43.01 C 280.71 42.99 287.55 43.00 294.40 43.01 C 294.40 55.67 294.40 68.34 294.40 81.01 C 294.39 84.76 294.86 88.80 297.19 91.88 C 300.34 96.20 307.81 96.11 310.85 91.71 C 312.90 88.92 313.22 85.32 313.27 81.98 C 313.26 68.99 313.27 56.00 313.26 43.01 C 320.13 42.99 327.00 43.00 333.87 43.01 C 333.85 55.69 333.88 68.37 333.86 81.05 C 333.73 89.46 332.01 98.63 325.76 104.75 C 319.22 111.02 309.58 112.32 300.89 111.97 C 292.29 111.65 283.15 108.10 278.61 100.39 C 273.03 91.31 273.98 80.22 273.87 70.02 C 273.87 61.02 273.86 52.01 273.87 43.01 Z" />
<path fill="#243141" opacity="1.00" d=" M 345.60 43.01 C 352.44 43.00 359.29 42.99 366.13 43.01 C 366.13 65.67 366.14 88.33 366.13 110.99 C 359.28 111.00 352.44 111.00 345.60 110.99 C 345.60 88.33 345.60 65.67 345.60 43.01 Z" />
<path fill="#243141" opacity="1.00" d=" M 440.60 43.01 C 447.44 43.00 454.28 42.99 461.13 43.01 C 461.14 53.81 461.11 64.62 461.14 75.42 C 465.91 64.38 471.77 53.84 476.99 43.00 C 485.08 43.03 493.17 42.93 501.26 43.06 C 494.73 53.86 488.19 64.66 481.88 75.59 C 489.00 87.34 496.01 99.17 503.01 111.00 C 494.77 111.00 486.54 111.00 478.30 111.00 C 473.50 101.97 468.88 92.85 464.16 83.77 C 462.93 81.46 461.98 79.02 461.10 76.57 C 461.17 88.04 461.12 99.52 461.13 110.99 C 454.28 111.00 447.44 111.00 440.60 110.99 C 440.60 88.33 440.60 65.67 440.60 43.01 Z" />
<path fill="#243141" opacity="1.00" d=" M 589.60 43.00 C 596.44 43.00 603.28 42.99 610.13 43.01 C 610.14 51.34 610.13 59.66 610.13 67.99 C 617.95 68.00 625.78 68.01 633.61 67.99 C 633.60 59.66 633.60 51.33 633.60 43.01 C 640.44 43.00 647.28 42.99 654.13 43.01 C 654.13 65.67 654.13 88.33 654.13 110.99 C 647.28 111.00 640.44 111.00 633.60 110.99 C 633.60 102.33 633.60 93.67 633.61 85.01 C 625.78 84.99 617.95 85.00 610.13 85.01 C 610.13 93.67 610.14 102.33 610.13 110.99 C 603.28 111.00 596.44 111.00 589.60 110.99 C 589.60 88.33 589.60 65.67 589.60 43.00 Z" />
<path fill="#243141" opacity="1.00" d=" M 735.54 43.01 C 755.11 43.00 774.69 42.99 794.26 43.01 C 794.27 48.34 794.27 53.66 794.26 58.99 C 787.84 59.01 781.42 58.99 775.00 59.00 C 774.99 76.33 775.00 93.67 775.00 111.00 C 768.17 111.00 761.35 111.00 754.54 110.99 C 754.53 93.67 754.53 76.34 754.54 59.01 C 748.20 58.98 741.87 59.01 735.54 59.00 C 735.53 53.67 735.53 48.34 735.54 43.01 Z" />
</g>
</svg>
