<svg xmlns="http://www.w3.org/2000/svg" width="575.998" height="384" viewBox="0 0 575.998 384">
  <path id="Исключение_2" data-name="Исключение 2" d="M288,384a311.683,311.683,0,0,1-88.691-12.839,315,315,0,0,1-79.331-36.182A330.538,330.538,0,0,1,3.479,206.6a32.35,32.35,0,0,1,0-29.191A330.511,330.511,0,0,1,119.965,49.041,315.077,315.077,0,0,1,199.3,12.846a312.683,312.683,0,0,1,177.387-.007,314.994,314.994,0,0,1,79.331,36.182A330.534,330.534,0,0,1,572.519,177.4a32.347,32.347,0,0,1,0,29.19A330.51,330.51,0,0,1,456.033,334.959a315.076,315.076,0,0,1-79.338,36.195A311.583,311.583,0,0,1,288,384Zm0-336c-79.4,0-144,64.6-144,144s64.6,144,144,144h.085A143.918,143.918,0,0,0,432,192C432,112.6,367.4,48,288,48Zm-.5,220a75.145,75.145,0,0,1-42.212-12.894,75.722,75.722,0,0,1-27.354-33.218,75.4,75.4,0,0,1,6.961-71.6,75.719,75.719,0,0,1,33.217-27.354,75.4,75.4,0,0,1,71.6,6.961,75.718,75.718,0,0,1,27.354,33.218,75.4,75.4,0,0,1-6.961,71.6,75.72,75.72,0,0,1-33.218,27.354A75.028,75.028,0,0,1,287.5,268Z"/>
</svg>
